<svg width="86" height="86" fill="none" xmlns="http://www.w3.org/2000/svg"><path d="M45.083 43c0-1.15.933-2.083 2.084-2.083h10.416c1.15 0 2.084.932 2.084 2.083v14.583c0 1.15-.933 2.084-2.084 2.084H47.167a2.083 2.083 0 0 1-2.084-2.084V43Zm-18.75-14.583c0-1.15.933-2.084 2.084-2.084h8.333c1.15 0 2.083.933 2.083 2.084V43c0 1.15-.932 2.083-2.083 2.083h-8.333A2.083 2.083 0 0 1 26.333 43V28.417Zm0 25c0-1.15.933-2.084 2.084-2.084h8.333c1.15 0 2.083.933 2.083 2.084v4.166c0 1.15-.932 2.084-2.083 2.084h-8.333a2.083 2.083 0 0 1-2.084-2.084v-4.166Zm18.75-25c0-1.15.933-2.084 2.084-2.084h10.416c1.15 0 2.084.933 2.084 2.084v4.166c0 1.15-.933 2.084-2.084 2.084H47.167a2.083 2.083 0 0 1-2.084-2.084v-4.166Z" stroke="#0A2973" stroke-width="3" stroke-linecap="round"/></svg>