<svg width="41" height="41" fill="none" xmlns="http://www.w3.org/2000/svg"><circle cx="20.5" cy="20.5" r="20.5" fill="#EDEDED"/><path d="M16.945 23.242a1 1 0 0 0 1.417 1.411l-1.417-1.411Zm8.698-5.896a1 1 0 1 0-1.417-1.411l1.417 1.411Zm-7.297-1.4a1 1 0 0 0-1.412 1.416l1.412-1.417Zm5.896 8.697a1 1 0 0 0 1.411-1.417l-1.411 1.417Zm-5.88.01L22.002 21l-1.416-1.412-3.64 3.654 1.416 1.411ZM22.002 21l3.64-3.654-1.416-1.411-3.64 3.653L22.002 21Zm-5.067-3.638 3.653 3.64L22 19.586l-3.654-3.64-1.412 1.416Zm3.653 3.64 3.654 3.64 1.411-1.416L22 19.586l-1.412 1.416Z" fill="#292929"/></svg>