<svg width="151" height="132" fill="none" xmlns="http://www.w3.org/2000/svg"><path d="M126.315 27.402c4.321.42 13.359-.972 14.943-9.902C142.843 8.57 147.08 6.098 149 5.978" stroke="#F3603F" stroke-width="3" stroke-linecap="round"/><circle cx="87.945" cy="63.826" r="43.2" fill="#53B175"/><g filter="url(#a)"><circle cx="87.945" cy="63.826" r="36.773" stroke="#fff" stroke-opacity=".7" stroke-width="2"/></g><path d="M107.143 53.362a4.276 4.276 0 0 1-1.301 3.091L86.33 75.162a4.9 4.9 0 0 1-3.273 1.285 4.716 4.716 0 0 1-3.231-1.285l-9.778-9.354a4.275 4.275 0 0 1-1.3-3.092c0-1.164.503-2.248 1.342-3.091.882-.803 2.014-1.245 3.231-1.285 1.217 0 2.35.442 3.231 1.245l6.505 6.223 16.28-15.578a4.756 4.756 0 0 1 3.232-1.244c1.217.04 2.35.482 3.231 1.325.839.803 1.343 1.887 1.343 3.051Z" fill="#fff"/><path d="M120.29 107.026c4.033 1.165 11.83 5.592 10.754 13.98" stroke="#F7B23B" stroke-width="3" stroke-linecap="round" stroke-linejoin="round"/><path d="M2 95.189c6.189 2.33 19.53 4.002 23.389-7.957m0 0c.562-3.295 0-9.814-6.752-9.524-1.286 3.174-1.736 9.524 6.752 9.524Zm0 0c2.813.522 9.355.024 13.02-6.149" stroke="#6E89FA" stroke-width="3" stroke-linecap="round" stroke-linejoin="round"/><circle cx="100.211" cy="127.141" r="4.141" fill="#637BFE"/><circle cx="139.356" cy="61.569" r="3.641" stroke="#C05EFD"/><circle cx="73.624" cy="4.535" r="4.535" fill="#53B175"/><circle cx="86.499" cy="12.188" r="2.395" fill="#F3603F"/><circle cx="33.718" cy="47.357" r="3.697" stroke="#F7B23B"/><circle cx="43.358" cy="113.532" r="4.115" stroke="#53B175"/><circle cx="2.205" cy="2.205" r="2.205" transform="matrix(-1 0 0 1 89.54 120.188)" fill="#53B175"/><defs><filter id="a" x="46.172" y="25.053" width="83.545" height="83.546" filterUnits="userSpaceOnUse" color-interpolation-filters="sRGB"><feFlood flood-opacity="0" result="BackgroundImageFix"/><feColorMatrix in="SourceAlpha" values="0 0 0 0 0 0 0 0 0 0 0 0 0 0 0 0 0 0 127 0" result="hardAlpha"/><feOffset dy="3"/><feGaussianBlur stdDeviation="2"/><feColorMatrix values="0 0 0 0 0 0 0 0 0 0 0 0 0 0 0 0 0 0 0.12 0"/><feBlend in2="BackgroundImageFix" result="effect1_dropShadow_126_755"/><feBlend in="SourceGraphic" in2="effect1_dropShadow_126_755" result="shape"/></filter></defs></svg>